<?xml version="1.0" encoding="UTF-8" standalone="no"?>
<!-- Created with Inkscape (http://www.inkscape.org/) -->

<svg
   xmlns:dc="http://purl.org/dc/elements/1.1/"
   xmlns:cc="http://creativecommons.org/ns#"
   xmlns:rdf="http://www.w3.org/1999/02/22-rdf-syntax-ns#"
   xmlns:svg="http://www.w3.org/2000/svg"
   xmlns="http://www.w3.org/2000/svg"
   xmlns:sodipodi="http://sodipodi.sourceforge.net/DTD/sodipodi-0.dtd"
   xmlns:inkscape="http://www.inkscape.org/namespaces/inkscape"
   width="16.886078mm"
   height="15.397221mm"
   viewBox="0 0 16.886078 15.397221"
   version="1.1"
   id="svg1611"
   inkscape:version="0.92.3 (2405546, 2018-03-11)"
   sodipodi:docname="bear-gun.svg"
   inkscape:export-filename="./bear-gun.png"
   inkscape:export-xdpi="82.482414"
   inkscape:export-ydpi="82.482414">
  <sodipodi:namedview
     id="base"
     pagecolor="#ffffff"
     bordercolor="#666666"
     borderopacity="1.0"
     inkscape:pageopacity="0.0"
     inkscape:pageshadow="2"
     inkscape:zoom="2.8"
     inkscape:cx="-25.707735"
     inkscape:cy="33.862094"
     inkscape:document-units="mm"
     inkscape:current-layer="layer1"
     showgrid="false"
     fit-margin-top="0"
     fit-margin-left="0"
     fit-margin-right="0"
     fit-margin-bottom="0"
     inkscape:window-width="1440"
     inkscape:window-height="755"
     inkscape:window-x="0"
     inkscape:window-y="0"
     inkscape:window-maximized="1" />
  <defs
     id="defs1605" />
  <metadata
     id="metadata1608">
    <rdf:RDF>
      <cc:Work
         rdf:about="">
        <dc:format>image/svg+xml</dc:format>
        <dc:type
           rdf:resource="http://purl.org/dc/dcmitype/StillImage" />
        <dc:title></dc:title>
      </cc:Work>
    </rdf:RDF>
  </metadata>
  <g
     transform="translate(-101.92601,-137.35496)"
     id="layer1"
     inkscape:groupmode="layer"
     inkscape:label="Layer 1">
    <g
       id="g44794"
       style="display:inline;opacity:1"
       transform="matrix(0.26458333,0,0,0.26458333,-75.108579,90.478449)">
      <ellipse
         ry="6.75"
         rx="7"
         cy="125.25001"
         cx="34.5"
         transform="matrix(2.0665794,0,0,2.1694948,624.0162,-57.278861)"
         id="path15994"
         style="fill:#666666;fill-opacity:1;fill-rule:nonzero;stroke:#191919;stroke-width:0.99938136;stroke-linecap:round;stroke-linejoin:round;stroke-miterlimit:4;stroke-dasharray:none;stroke-dashoffset:0;stroke-opacity:1;opacity:1" />
      <ellipse
         ry="6.75"
         rx="7"
         cy="125.25001"
         cx="34.5"
         transform="matrix(1.1366073,0,0,1.13391,663.13396,43.859512)"
         id="path16006"
         style="fill:#666666;fill-opacity:1;fill-rule:nonzero;stroke:#191919;stroke-width:1.86398351;stroke-linecap:round;stroke-linejoin:round;stroke-miterlimit:4;stroke-dasharray:none;stroke-dashoffset:0;stroke-opacity:1;opacity:1" />
      <ellipse
         ry="6.75"
         rx="7"
         cy="125.25001"
         cx="34.5"
         style="fill:#7f7f7f;fill-opacity:1;fill-rule:nonzero;stroke:#191919;stroke-width:1.66974521;stroke-linecap:round;stroke-linejoin:round;stroke-miterlimit:4;stroke-dasharray:none;stroke-dashoffset:0;stroke-opacity:1;opacity:1"
         id="path16044"
         transform="matrix(-0.62241705,0,0,0.64510631,723.40949,106.35119)" />
      <ellipse
         ry="6.75"
         rx="7"
         cy="125.25001"
         cx="34.5"
         style="fill:#666666;fill-opacity:1;fill-rule:nonzero;stroke:#191919;stroke-width:1.86398351;stroke-linecap:round;stroke-linejoin:round;stroke-miterlimit:4;stroke-dasharray:none;stroke-dashoffset:0;stroke-opacity:1;opacity:1"
         id="path16004"
         transform="matrix(1.1366073,0,0,1.13391,645.46298,43.859512)" />
      <ellipse
         ry="6.75"
         rx="7"
         cy="125.25001"
         cx="34.5"
         transform="matrix(0.62241705,0,0,0.64510631,664.30235,106.182)"
         id="path16042"
         style="fill:#7f7f7f;fill-opacity:1;fill-rule:nonzero;stroke:#191919;stroke-width:1.66974521;stroke-linecap:round;stroke-linejoin:round;stroke-miterlimit:4;stroke-dasharray:none;stroke-dashoffset:0;stroke-opacity:1;opacity:1" />
      <ellipse
         ry="6.75"
         rx="7"
         cy="125.25001"
         cx="34.5"
         style="fill:#666666;fill-opacity:1;fill-rule:nonzero;stroke:#191919;stroke-width:1.23083544;stroke-linecap:round;stroke-linejoin:round;stroke-miterlimit:4;stroke-dasharray:none;stroke-dashoffset:0;stroke-opacity:1;opacity:1"
         id="path15992"
         transform="matrix(1.7192405,0,0,1.7192405,635.39155,-18.511966)" />
      <ellipse
         ry="6.75"
         rx="7"
         cy="125.25001"
         cx="34.5"
         transform="matrix(1.1366073,0,0,0.82769124,656.30327,115.76264)"
         id="path16194"
         style="fill:#999999;fill-opacity:1;fill-rule:nonzero;stroke:#191919;stroke-width:1.09085536;stroke-linecap:round;stroke-linejoin:round;stroke-miterlimit:4;stroke-dasharray:none;stroke-dashoffset:0;stroke-opacity:1;opacity:1" />
      <ellipse
         ry="6.75"
         rx="7"
         cy="125.25001"
         cx="34.5"
         style="fill:#666666;fill-opacity:1;fill-rule:nonzero;stroke:#191919;stroke-width:1.93959522;stroke-linecap:round;stroke-linejoin:round;stroke-miterlimit:4;stroke-dasharray:none;stroke-dashoffset:0;stroke-opacity:1;opacity:1"
         id="path15998"
         transform="matrix(1.2532443,0,0,0.94976286,661.3667,109.0755)" />
      <ellipse
         ry="6.75"
         rx="7"
         cy="125.25001"
         cx="34.5"
         transform="matrix(1.2022416,0,0,0.92511135,646.17318,111.98364)"
         id="path15996"
         style="fill:#666666;fill-opacity:1;fill-rule:nonzero;stroke:#191919;stroke-width:2.00652075;stroke-linecap:round;stroke-linejoin:round;stroke-miterlimit:4;stroke-dasharray:none;stroke-dashoffset:0;stroke-opacity:1;opacity:1" />
      <ellipse
         ry="0.9722718"
         rx="1.0606601"
         cy="125.46067"
         cx="32.173359"
         style="fill:#000000;fill-opacity:1;fill-rule:nonzero;stroke:none;opacity:1"
         id="path16008"
         transform="matrix(2.5007136,0,0,2.5007136,610.24894,-120.05118)" />
      <ellipse
         ry="0.9722718"
         rx="1.0606601"
         cy="125.46067"
         cx="32.173359"
         transform="matrix(2.5007136,0,0,2.5007136,618.34158,-120.05118)"
         id="path16010"
         style="fill:#000000;fill-opacity:1;fill-rule:nonzero;stroke:none;opacity:1" />
      <ellipse
         ry="6.75"
         rx="7"
         cy="125.25001"
         cx="34.5"
         style="fill:#999999;fill-opacity:1;fill-rule:nonzero;stroke:#191919;stroke-width:1.24187148;stroke-linecap:round;stroke-linejoin:round;stroke-miterlimit:4;stroke-dasharray:none;stroke-dashoffset:0;stroke-opacity:1;opacity:1"
         id="path16012"
         transform="matrix(1.1366073,0,0,0.6386301,655.66519,124.1286)" />
      <ellipse
         ry="0.9722718"
         rx="1.0606601"
         cy="125.46067"
         cx="32.173359"
         style="fill:#000000;fill-opacity:1;fill-rule:nonzero;stroke:none;opacity:1"
         id="path16014"
         transform="matrix(2.5007136,0,0,2.5007136,614.54256,-113.3649)" />
      <g
         style="display:inline;opacity:1"
         transform="rotate(30,459.01564,644.93508)"
         id="g44638">
        <g
           id="g44640"
           transform="translate(416.46447)">
          <path
             inkscape:connector-curvature="0"
             style="fill:#b3b3b3;fill-opacity:1;stroke:#1a1a1a;stroke-width:1.5;stroke-linecap:round;stroke-linejoin:round;stroke-miterlimit:4;stroke-dasharray:none;stroke-dashoffset:0;stroke-opacity:1;opacity:1"
             d="m 36.8125,152.625 c -3.279191,0 -5.9375,2.49042 -5.9375,5.5625 0,3.07208 2.658309,5.5625 5.9375,5.5625 3.279191,0 5.9375,-2.49042 5.9375,-5.5625 0,-3.07208 -2.658309,-5.5625 -5.9375,-5.5625 z m 0,3.25 c 1.377636,0 2.5,1.03534 2.5,2.3125 0,1.27716 -1.122364,2.3125 -2.5,2.3125 -1.377636,0 -2.5,-1.03534 -2.5,-2.3125 0,-1.27716 1.122364,-2.3125 2.5,-2.3125 z"
             id="path44642" />
          <path
             inkscape:connector-curvature="0"
             sodipodi:nodetypes="ccccccccccccc"
             style="fill:#4c4c4c;fill-opacity:1;stroke:#191919;stroke-width:1.5;stroke-linecap:round;stroke-linejoin:round;stroke-miterlimit:4;stroke-dasharray:none;stroke-dashoffset:0;stroke-opacity:1;opacity:1"
             d="m 35.59375,147.9375 c -0.846451,0.23792 -1.646179,0.51393 -2.4375,0.8125 H 32.5 c -0.928216,0 -1.724942,0.50274 -2.15625,1.25 -8.468506,4.28602 -13.59463,12.23516 -17.90625,21.09375 l 6.71875,6.71875 C 24.177879,168.84299 28.250768,158.9294 38.8125,155.5 H 56.25 c 1.385,0 2.5,-1.115 2.5,-2.5 v -1.75 c 0,-1.385 -1.115,-2.5 -2.5,-2.5 H 36.40625 Z"
             id="path44644" />
          <rect
             ry="1.4814814"
             y="-37.218609"
             x="140.13675"
             height="4"
             width="8.458334"
             id="rect44646"
             style="fill:#b3b3b3;fill-opacity:1;stroke:#1a1a1a;stroke-width:1.5;stroke-linecap:round;stroke-linejoin:round;stroke-miterlimit:4;stroke-dasharray:none;stroke-dashoffset:0;stroke-opacity:1;opacity:1"
             transform="rotate(90)" />
          <rect
             style="fill:#b3b3b3;fill-opacity:1;stroke:#1a1a1a;stroke-width:1.5;stroke-linecap:round;stroke-linejoin:round;stroke-miterlimit:4;stroke-dasharray:none;stroke-dashoffset:0;stroke-opacity:1;opacity:1"
             id="rect44648"
             width="37.75"
             height="6.75"
             x="32.5"
             y="144.75"
             ry="2.5" />
        </g>
        <g
           id="g44650"
           transform="matrix(0.03408418,-1.2283314,1.2283314,0.03408418,143.98817,361.05149)" />
        <path
           inkscape:connector-curvature="0"
           id="path44660"
           d="m 451.32002,146.35325 h 34.02127"
           style="fill:none;stroke:#cccccc;stroke-width:1.99999976;stroke-linecap:round;stroke-linejoin:round;stroke-opacity:1;opacity:1" />
      </g>
      <path
         inkscape:connector-curvature="0"
         style="fill:#666666;fill-opacity:1;fill-rule:nonzero;stroke:#191919;stroke-width:2.1161015;stroke-linecap:round;stroke-linejoin:round;stroke-miterlimit:4;stroke-dashoffset:0;stroke-opacity:1;opacity:1"
         d="m 681.18623,209.29906 c 1.77462,0.0154 3.98141,0.57143 6.23403,1.67268 4.66059,2.27842 5.7773,5.41189 4.93073,7.75911 -0.84657,2.34719 -3.33582,3.01931 -7.99642,0.74088 -2.82488,-1.38101 -5.07344,-3.3026 -6.218,-5.12475 -0.28325,-3.01766 1.7166,-4.41895 3.04966,-5.04792 z"
         id="path16000"
         sodipodi:nodetypes="cssscc" />
      <path
         inkscape:connector-curvature="0"
         style="fill:#666666;fill-opacity:1;fill-rule:nonzero;stroke:#191919;stroke-width:2.1161015;stroke-linecap:round;stroke-linejoin:round;stroke-miterlimit:4;stroke-dashoffset:0;stroke-opacity:1;opacity:1"
         d="m 709.47082,209.60131 c -1.80789,-0.0998 -4.17118,0.43672 -6.58905,1.6163 -4.55121,2.22035 -5.49591,5.00286 -4.67149,7.2948 0.82441,2.29192 3.10575,3.22536 7.65698,1.005 3.05092,-1.48841 5.41428,-3.62285 6.39256,-5.55873 -0.19264,-2.39055 -0.93,-3.73625 -2.789,-4.35737 z"
         id="path44780"
         sodipodi:nodetypes="cssscc" />
    </g>
  </g>
</svg>
