<?xml version="1.0" encoding="UTF-8" standalone="no"?>
<!-- Created with Inkscape (http://www.inkscape.org/) -->

<svg
   xmlns:dc="http://purl.org/dc/elements/1.1/"
   xmlns:cc="http://creativecommons.org/ns#"
   xmlns:rdf="http://www.w3.org/1999/02/22-rdf-syntax-ns#"
   xmlns:svg="http://www.w3.org/2000/svg"
   xmlns="http://www.w3.org/2000/svg"
   xmlns:xlink="http://www.w3.org/1999/xlink"
   xmlns:sodipodi="http://sodipodi.sourceforge.net/DTD/sodipodi-0.dtd"
   xmlns:inkscape="http://www.inkscape.org/namespaces/inkscape"
   width="230"
   height="200"
   id="svg2"
   version="1.1"
   inkscape:version="0.92.3 (2405546, 2018-03-11)"
   sodipodi:docname="smiley_face.svg"
   inkscape:export-filename="./smiley-face.png"
   inkscape:export-xdpi="29.162674"
   inkscape:export-ydpi="29.162674">
  <sodipodi:namedview
     id="base"
     pagecolor="#ffffff"
     bordercolor="#666666"
     borderopacity="1.0"
     inkscape:pageopacity="1"
     inkscape:pageshadow="2"
     inkscape:zoom="1.979899"
     inkscape:cx="-146.96005"
     inkscape:cy="119.03691"
     inkscape:document-units="px"
     inkscape:current-layer="layer1"
     showgrid="false"
     inkscape:window-width="1440"
     inkscape:window-height="755"
     inkscape:window-x="0"
     inkscape:window-y="0"
     inkscape:window-maximized="1" />
  <defs
     id="defs4">
    <inkscape:perspective
       id="perspective10"
       inkscape:persp3d-origin="372.04724 : 350.78739 : 1"
       inkscape:vp_z="744.09448 : 526.18109 : 1"
       inkscape:vp_y="0 : 1000 : 0"
       inkscape:vp_x="0 : 526.18109 : 1"
       sodipodi:type="inkscape:persp3d" />
  </defs>
  <metadata
     id="metadata7">
    <rdf:RDF>
      <cc:Work
         rdf:about="">
        <dc:format>image/svg+xml</dc:format>
        <dc:type
           rdf:resource="http://purl.org/dc/dcmitype/StillImage" />
        <dc:title />
      </cc:Work>
    </rdf:RDF>
  </metadata>
  <g
     transform="translate(-56.599007,-34.108162)"
     id="layer1"
     inkscape:groupmode="layer"
     inkscape:label="Layer 1">
    <g
       transform="translate(25.126885,-17.703026)"
       id="g3608">
      <path
         sodipodi:type="arc"
         style="fill:#bfbfbf;fill-opacity:1;stroke:#000000;stroke-width:6;stroke-linecap:round;stroke-linejoin:round;stroke-miterlimit:4;stroke-opacity:1;stroke-dasharray:none;stroke-dashoffset:0;opacity:1"
         id="path2816"
         sodipodi:cx="146.47212"
         sodipodi:cy="151.81119"
         sodipodi:rx="86.873116"
         sodipodi:ry="79.296974"
         d="M 233.34524,151.81119 A 86.873116,79.296974 0 0 1 146.47212,231.10816 86.873116,79.296974 0 0 1 59.599007,151.81119 86.873116,79.296974 0 0 1 146.47212,72.514214 86.873116,79.296974 0 0 1 233.34524,151.81119 Z" />
      <path
         style="fill:#ffffff;fill-opacity:1;stroke:#000000;stroke-width:4;stroke-linecap:round;stroke-linejoin:round;stroke-miterlimit:4;stroke-opacity:1;stroke-dashoffset:0;opacity:1"
         d="m 125.76398,145.56753 -35.37564,0 c 0.140585,-10.83156 -4.141982,-36.01212 16.68782,-37.1929 20.8298,-1.18078 18.68782,26.3301 18.68782,37.1929 z"
         id="path2818"
         sodipodi:nodetypes="cczc" />
      <use
         x="0"
         y="0"
         xlink:href="#path2818"
         id="use3595"
         transform="translate(71.215754,0)"
         width="744.09448"
         height="1052.3622" />
      <path
         sodipodi:type="arc"
         style="fill:#000000;fill-opacity:1;stroke:none;opacity:1"
         id="path3597"
         sodipodi:cx="116.67262"
         sodipodi:cy="122.26423"
         sodipodi:rx="7.5761442"
         sodipodi:ry="7.323606"
         d="m 124.24877,122.26423 a 7.5761442,7.323606 0 0 1 -7.57615,7.3236 7.5761442,7.323606 0 0 1 -7.57614,-7.3236 7.5761442,7.323606 0 0 1 7.57614,-7.32361 7.5761442,7.323606 0 0 1 7.57615,7.32361 z"
         transform="matrix(1.1166667,0,0,1.1034483,-15.781403,-16.655638)" />
      <use
         x="0"
         y="0"
         xlink:href="#path3597"
         id="use3599"
         transform="translate(71.067821,-0.50507627)"
         width="744.09448"
         height="1052.3622" />
      <path
         sodipodi:nodetypes="cccc"
         id="path3601"
         d="m 100.65748,175.51749 71.59189,0 c 0,0 32.69942,41.2399 -20.80431,41.83576 -53.503729,0.59586 -50.78758,-41.83576 -50.78758,-41.83576 z"
         style="fill:#666666;fill-opacity:1;stroke:#000000;stroke-width:4;stroke-linecap:round;stroke-linejoin:round;stroke-miterlimit:4;stroke-opacity:1;stroke-dashoffset:0;opacity:1" />
      <path
         style="fill:#b2b2b2;stroke:none;opacity:1"
         d="m 136.65141,214.41287 c 5.16241,-18.21939 19.19779,-19.13867 33.64872,-1.92708 -10.39447,4.33739 -22.46472,5.562 -33.64872,1.92708 z"
         id="path3606"
         sodipodi:nodetypes="ccc" />
    </g>
  </g>
</svg>
